<?xml version="1.0" encoding="utf-8"?>
<svg version="1.1" xmlns="http://www.w3.org/2000/svg" viewBox="-10 -5 60 85">
  <g transform="rotate(-45 20 40)">
    <!-- Left wing -->
    <polygon fill="#CCE0EB" points="15,44.3 17.1,46.4 16.7,59.5 15,61.2 6.5,52.8"/>

    <!-- Right wing -->
    <path fill="#CCE0EB" d="M35.5,23.8l1.4,1.4l3.6,30.9c0.1,1.1-0.4,2.6-1.2,3.4l-1,1c-0.8,0.8-2,0.8-2.8,0L17.1,42.2L35.5,23.8z"/>

    <!-- Left horizontal stabilizer -->
    <polygon fill="#CCE0EB" points="15.7,45 13.6,42.9 0.5,43.3 -1.2,45 7.2,53.5"/>

    <!-- Right horizontal stabilizer -->
    <path fill="#CCE0EB" d="M36.2,24.5l-1.4-1.4L3.9,19.4c-1.1-0.1-2.6,0.4-3.4,1.2l-1,1c-0.8,0.8-0.8,2,0,2.8l18.4,18.4L36.2,24.5z"/>

    <!-- Fuselage (white body) -->
    <path fill="#FFFFFF" d="M41.5,18.5c2.5,2.5,1.4,7.8-2.5,11.7l-4.9,4.9C27,42.2,9.6,53.9,9.4,54c-1.4,1.1-3.1,1.3-3.9,0.5C4.6,53.7,4.9,52,6,50.6c0.2-0.2,12-17.6,19-24.7l4.9-4.9C33.8,17,39,15.9,41.5,18.5z"/>

    <!-- Cockpit detail -->
    <path fill="#A9B9C2" d="M37.6,28.1c-0.6,0-1.2-0.4-1.4-1l0,0c0,0-0.3-0.8-1.4-1.9c-1.1-1.1-1.9-1.4-1.9-1.4c-0.8-0.3-1.2-1.1-0.9-1.9s1.1-1.2,1.9-0.9c0.2,0.1,1.5,0.5,3.1,2.1c1.6,1.6,2.1,2.9,2.1,3c0.3,0.8-0.1,1.6-0.9,1.9C38,28.1,37.8,28.1,37.6,28.1z"/>
  </g>
</svg>
